<?xml version="1.0" standalone="no"?><svg xmlns="http://www.w3.org/2000/svg" viewBox="0 0 1440 320"><path fill="#f5921e" fill-opacity="1" d="M0,256L24,245.3C48,235,96,213,144,192C192,171,240,149,288,128C336,107,384,85,432,106.7C480,128,528,192,576,229.3C624,267,672,277,720,282.7C768,288,816,288,864,272C912,256,960,224,1008,213.3C1056,203,1104,213,1152,202.7C1200,192,1248,160,1296,122.7C1344,85,1392,43,1416,21.3L1440,0L1440,0L1416,0C1392,0,1344,0,1296,0C1248,0,1200,0,1152,0C1104,0,1056,0,1008,0C960,0,912,0,864,0C816,0,768,0,720,0C672,0,624,0,576,0C528,0,480,0,432,0C384,0,336,0,288,0C240,0,192,0,144,0C96,0,48,0,24,0L0,0Z"></path></svg>